# xmcd
#
# Track frame offsets: 
#        180
#        13497
#        33334
#        48854
#        69583
#
# Disc length: 1182 seconds
#
# Revision: 0
# Processed by: cddbd v1.5.2PL0 Copyright (c) Steve Scherf et al.
# Submitted via: ExactAudioCopy v0.95b3
#
DISCID=3d049c05
DTITLE=Lowerdown - This Way Up
DYEAR=1998
DGENRE=Blues
TTITLE0=Tax Payin' Blues
TTITLE1=Rhetoric Blues
TTITLE2=The Road Is My Middle Name
TTITLE3=The Stars In The Sky
TTITLE4=Times Up
EXTD=
EXTT0=
EXTT1=
EXTT2=
EXTT3=
EXTT4=
PLAYORDER=
